<?xml version="1.0" encoding="UTF-8"?>
<svg version="1.1" xmlns="http://www.w3.org/2000/svg" width="523" height="210">
<path d="M0 0 C4.14021441 -0.02519558 8.28038523 -0.04308741 12.4206543 -0.05493164 C13.82170389 -0.05988235 15.22274856 -0.06664464 16.6237793 -0.07543945 C26.4654056 -0.13555718 36.18707279 0.21393783 46 1 C45.4440068 8.50555125 44.1345969 15.68878815 42.49609375 23.02734375 C42.2533522 24.13807755 42.01061066 25.24881134 41.76051331 26.39320374 C40.99149097 29.90916092 40.2150577 33.42342142 39.4375 36.9375 C38.6572726 40.47675756 37.87869577 44.01635458 37.10377502 47.55677795 C36.62297698 49.75219574 36.13898235 51.94691641 35.651474 54.14085388 C35.43447342 55.12940872 35.21747284 56.11796356 34.99389648 57.13647461 C34.80149887 58.00566025 34.60910126 58.87484589 34.41087341 59.77037048 C33.90938632 62.11385877 33.90938632 62.11385877 34 65 C34.31114746 64.40276123 34.62229492 63.80552246 34.94287109 63.19018555 C36.41984645 60.35574788 37.897377 57.52160009 39.375 54.6875 C39.9208374 53.64021729 40.4666748 52.59293457 41.02905273 51.51391602 C43.55308423 46.67481183 46.08048653 41.83781047 48.63671875 37.015625 C54.95020402 25.1043837 61.00546186 13.07454764 67 1 C73.37203593 0.9494037 79.7440203 0.91431043 86.11621094 0.89013672 C88.28517594 0.88006211 90.45412731 0.86640202 92.62304688 0.84912109 C95.73571126 0.82493677 98.84819651 0.81353168 101.9609375 0.8046875 C102.934935 0.79436493 103.9089325 0.78404236 104.91244507 0.77340698 C106.26361923 0.77318039 106.26361923 0.77318039 107.64208984 0.77294922 C108.43706879 0.768508 109.23204773 0.76406677 110.05111694 0.75949097 C112 1 112 1 114 3 C105.11262591 28.15130348 96.12862917 53.26039558 86.85717773 78.2727356 C84.31165361 85.14508482 81.78703965 92.02502344 79.265625 98.90625 C78.65719254 100.56602875 78.65719254 100.56602875 78.03646851 102.25933838 C76.42112798 106.66603837 74.80579091 111.07273765 73.19293213 115.48034668 C72.07526123 118.53426101 70.95576323 121.58750027 69.8359375 124.640625 C69.34302216 125.98985046 69.34302216 125.98985046 68.84014893 127.36633301 C66.66581346 133.28831149 64.37278674 139.15476366 62 145 C58.04900072 145.0246985 54.09803126 145.04285923 50.14697266 145.05493164 C48.14093449 145.06244036 46.13491798 145.0751447 44.12890625 145.08789062 C42.24365234 145.09272461 42.24365234 145.09272461 40.3203125 145.09765625 C39.15773926 145.10289307 37.99516602 145.10812988 36.79736328 145.11352539 C34 145 34 145 32 144 C32.66801892 138.50405154 34.42594863 133.63176831 36.32421875 128.46875 C36.66262787 127.53579605 37.00103699 126.6028421 37.34970093 125.64161682 C38.45723468 122.5925407 39.5722379 119.54625688 40.6875 116.5 C41.45342169 114.39654062 42.21896199 112.29294233 42.98413086 110.18920898 C49.93262461 91.10537929 56.94828245 72.04591085 64 53 C60.19697546 58.91047677 56.84026522 64.94055807 53.625 71.1875 C53.11171143 72.1787085 52.59842285 73.16991699 52.06958008 74.19116211 C50.95893677 76.33670421 49.84969045 78.48296993 48.74169922 80.62988281 C46.97098956 84.05613402 45.1915222 87.47771592 43.41015625 90.8984375 C42.48198627 92.68363304 41.55426178 94.46905898 40.62683105 96.25463867 C40.00063968 97.45982312 39.37393063 98.66473873 38.7467041 99.86938477 C35.02854332 107.01559276 31.39714376 114.19459683 27.88671875 121.4453125 C27.20830675 122.83726426 26.52967969 124.22911122 25.85083008 125.62084961 C24.55273654 128.28276846 23.27624299 130.95368088 22.01049805 133.63110352 C21.42187581 134.84170501 20.83247986 136.05193073 20.2421875 137.26171875 C19.7354248 138.32350342 19.22866211 139.38528809 18.70654297 140.47924805 C16.686903 143.46247876 15.45347436 144.12311952 12 145 C9.7800293 145.22705078 9.7800293 145.22705078 7.57421875 145.1953125 C6.85580811 145.19031738 6.13739746 145.18532227 5.3972168 145.18017578 C4.50301025 145.16196777 3.60880371 145.14375977 2.6875 145.125 C1.13778691 145.10200253 -0.41193738 145.07975258 -1.96166992 145.05810547 C-3.98083496 145.02905273 -3.98083496 145.02905273 -6 145 C-3.34363168 131.46358018 -0.59305565 117.94944351 2.296875 104.4609375 C2.43747849 103.80435402 2.57808197 103.14777054 2.72294617 102.47129059 C3.87788104 97.08047544 5.03638062 91.69042783 6.19647217 86.30072021 C6.93246686 82.88133435 7.66760569 79.46177105 8.40020752 76.04165649 C8.9423441 73.51140152 9.48646385 70.98157036 10.03289795 68.45223999 C11.20420012 62.98079824 12.32136964 57.55565305 13 52 C5.80855637 69.60510788 -0.87503483 87.35689777 -7.3125 105.25 C-8.61919323 108.87185761 -9.92712947 112.49326061 -11.2363739 116.11419678 C-12.03952104 118.33644113 -12.84110301 120.55925213 -13.64070129 122.78277588 C-21.4607792 144.4607792 -21.4607792 144.4607792 -23 146 C-25.82260042 146.10176926 -28.61498009 146.14072122 -31.4375 146.125 C-32.66025635 146.12209961 -32.66025635 146.12209961 -33.90771484 146.11914062 C-39.66306512 146.07794106 -45.28733188 145.73711847 -51 145 C-52.00313122 141.90313803 -52.0072796 140.18031032 -50.88623047 137.13598633 C-50.47602158 135.99759056 -50.47602158 135.99759056 -50.05752563 134.8361969 C-49.74721405 134.00982224 -49.43690247 133.18344757 -49.1171875 132.33203125 C-48.79567719 131.44978378 -48.47416687 130.56753632 -48.14291382 129.65855408 C-47.06392816 126.70597289 -45.96950145 123.75936134 -44.875 120.8125 C-44.10812336 118.72397264 -43.3421926 116.63509775 -42.57714844 114.54589844 C-40.93188706 110.0596151 -39.27967108 105.57597693 -37.62207031 101.09423828 C-34.95313743 93.87807257 -32.30011898 86.65611292 -29.6484375 79.43359375 C-24.44991628 65.2825402 -19.2290292 51.13980483 -14 37 C-13.63229492 36.00534729 -13.26458984 35.01069458 -12.88574219 33.98590088 C-10.95583304 28.76566025 -9.02442651 23.54597996 -7.08972168 18.32751465 C-6.5358004 16.83340076 -5.98216454 15.33918103 -5.42883301 13.84484863 C-4.68813231 11.84533578 -3.94591909 9.84639221 -3.203125 7.84765625 C-2.59452637 6.2080896 -2.59452637 6.2080896 -1.97363281 4.53540039 C-1 2 -1 2 0 0 Z " fill="#064F9F" transform="translate(276,35)"/>
<path d="M0 0 C1.03189453 -0.00209473 2.06378906 -0.00418945 3.12695312 -0.00634766 C4.25294922 -0.0016748 5.37894531 0.00299805 6.5390625 0.0078125 C7.69341797 0.01119629 8.84777344 0.01458008 10.03710938 0.01806641 C18.58286832 0.0676438 27.12264374 0.2329737 35.6640625 0.5078125 C36.76540527 0.53858887 37.86674805 0.56936523 39.00146484 0.60107422 C57.09128824 1.26758506 57.09128824 1.26758506 64.1640625 7.1328125 C68.54165886 11.96326366 68.46895764 16.828345 68.1640625 23.1328125 C66.10476799 35.53974215 61.93127607 49.99536402 52.265625 58.66796875 C41.5560625 66.1328125 41.5560625 66.1328125 36.1640625 66.1328125 C38.05046369 68.22881382 39.68965546 69.43940839 42.1640625 70.8828125 C45.69433539 73.53051717 47.35669794 75.84749305 48.1640625 80.1328125 C48.14170383 87.55887104 46.52672233 94.34996801 44.1015625 101.3203125 C43.79283203 102.22233398 43.48410156 103.12435547 43.16601562 104.05371094 C38.17118561 118.21240243 31.90557338 134.478356 18.0546875 141.984375 C12.27634636 144.28009432 6.31716758 144.72160366 0.1640625 145.1328125 C-0.58230469 145.18775879 -1.32867187 145.24270508 -2.09765625 145.29931641 C-20.3046418 146.57455775 -38.59623548 146.23388502 -56.8359375 146.1328125 C-58.03765846 142.52764961 -57.54205395 141.57168702 -56.29882812 138.05761719 C-55.93865601 137.02719299 -55.57848389 135.9967688 -55.20739746 134.93511963 C-54.80637817 133.81957703 -54.40535889 132.70403442 -53.9921875 131.5546875 C-53.58182251 130.39289978 -53.17145752 129.23111206 -52.74865723 128.03411865 C-48.39799224 115.77287162 -43.88136266 103.57288732 -39.3359375 91.3828125 C-38.46761996 89.04748084 -37.59962471 86.71202932 -36.73193359 84.37646484 C-35.40575106 80.80700307 -34.07933562 77.23762964 -32.75180054 73.66867065 C-27.94974652 60.75843613 -23.18016864 47.83624542 -18.41137695 34.91369629 C-16.51487337 29.77523048 -14.61616114 24.63759565 -12.7130127 19.50158691 C-12.12215599 17.90582151 -11.53224982 16.30970387 -10.9432373 14.71325684 C-10.10540653 12.44327255 -9.26410131 10.17460642 -8.421875 7.90625 C-8.17329742 7.23050934 -7.92471985 6.55476868 -7.66860962 5.85855103 C-5.4879659 0.00678604 -5.4879659 0.00678604 0 0 Z M16.1640625 27.1328125 C15.05458843 28.94797003 15.05458843 28.94797003 14.2265625 31.21875 C13.72189453 32.48477051 13.72189453 32.48477051 13.20703125 33.77636719 C12.86285156 34.67774414 12.51867187 35.57912109 12.1640625 36.5078125 C11.80957031 37.4143457 11.45507812 38.32087891 11.08984375 39.25488281 C8.70628867 45.44636651 6.59278172 51.64404603 5.1640625 58.1328125 C8.31317729 59.70736989 10.68415066 59.48080368 14.1640625 59.1328125 C19.34112932 55.62576723 21.42310985 52.38747501 23.4765625 46.5703125 C23.72728516 45.91095703 23.97800781 45.25160156 24.23632812 44.57226562 C26.42197846 38.74191152 27.28402683 34.37095784 27.1640625 28.1328125 C21.69989098 26.13586174 21.69989098 26.13586174 16.1640625 27.1328125 Z M-2.8359375 80.1328125 C-6.64659188 87.23004525 -9.33264237 94.61288099 -12.0234375 102.1953125 C-12.47396484 103.43603516 -12.92449219 104.67675781 -13.38867188 105.95507812 C-13.81857422 107.15970703 -14.24847656 108.36433594 -14.69140625 109.60546875 C-15.27378052 111.23367554 -15.27378052 111.23367554 -15.86791992 112.89477539 C-16.88692234 116.30335775 -17.41828409 119.60407303 -17.8359375 123.1328125 C-12.0437696 122.73335265 -8.22809091 122.23852112 -3.8359375 118.1328125 C0.21592697 111.84257789 2.74913878 104.90200674 5.0390625 97.8203125 C5.36209351 96.83466309 5.36209351 96.83466309 5.69165039 95.82910156 C7.01302219 91.49347005 7.36274499 87.64991731 7.1640625 83.1328125 C5.87396607 82.62877482 4.58192461 82.12971324 3.2890625 81.6328125 C2.56976563 81.354375 1.85046875 81.0759375 1.109375 80.7890625 C-0.80961211 80.02626232 -0.80961211 80.02626232 -2.8359375 80.1328125 Z " fill="#064F9F" transform="translate(413.8359375,34.8671875)"/>
<path d="M0 0 C5.40374627 0.12004036 10.80737282 0.24436032 16.2109375 0.37231445 C18.04164083 0.41510137 19.87236989 0.45680371 21.703125 0.49731445 C62.11010794 1.39450898 62.11010794 1.39450898 70 8 C73.85464411 13.26801362 73.77458557 18.74429938 73 25 C70.28098919 38.46945682 64.90708499 55.81618956 53.3515625 64.1953125 C50.2457098 66.09255284 47.04262956 67.39221219 43.625 68.625 C39.94052268 69.55422047 39.94052268 69.55422047 39 72 C39.721875 72.20625 40.44375 72.4125 41.1875 72.625 C44.71111682 74.34765711 47.24501262 76.50352515 49 80 C50.15437279 85.95605109 49.80172671 90.17348209 47.75390625 95.91796875 C47.38445389 97.01582703 47.38445389 97.01582703 47.00753784 98.13586426 C46.20925211 100.49252074 45.38702078 102.83990736 44.5625 105.1875 C44.00633432 106.80478226 43.45108081 108.42237848 42.89672852 110.0402832 C41.2911739 114.70308985 39.64969808 119.35266359 38 124 C37.5678418 125.22589844 37.13568359 126.45179688 36.69042969 127.71484375 C35.62530505 130.71323646 34.54009943 133.70271525 33.4375 136.6875 C33.12820557 137.54045654 32.81891113 138.39341309 32.50024414 139.2722168 C31.75700117 141.21835343 30.89106496 143.11695429 30 145 C26.58248347 146.13917218 23.96512063 146.11338481 20.36328125 146.09765625 C19.06455078 146.09443359 17.76582031 146.09121094 16.42773438 146.08789062 C15.05598892 146.07953531 13.68424413 146.07107037 12.3125 146.0625 C10.92903805 146.05748335 9.54557437 146.05292073 8.16210938 146.04882812 C4.77469605 146.03702529 1.38736967 146.02056019 -2 146 C-0.45197855 136.00915102 3.0853495 126.78341001 6.5 117.3125 C7.39533462 114.81324563 8.28866519 112.31329728 9.17980957 109.81254578 C9.73128974 108.26663221 10.28540341 106.72165453 10.84265137 105.17781067 C14.1726948 96.10478723 14.1726948 96.10478723 15.125 86.5625 C15.10695313 85.69753906 15.08890625 84.83257812 15.0703125 83.94140625 C15.04710937 83.30074219 15.02390625 82.66007812 15 82 C13.35 81.34 11.7 80.68 10 80 C7.23532549 84.31391935 5.20036516 88.80517066 3.1875 93.5 C2.81222168 94.37060059 2.43694336 95.24120117 2.05029297 96.13818359 C-0.65745239 102.5384064 -3.16042525 109.00066042 -5.59765625 115.5078125 C-5.90880875 116.33774719 -6.21996124 117.16768188 -6.5405426 118.02276611 C-8.11244107 122.22432748 -9.67103055 126.43034971 -11.21411133 130.64257812 C-11.79625136 132.21228979 -12.3785211 133.78195336 -12.9609375 135.3515625 C-13.2231459 136.07884552 -13.48535431 136.80612854 -13.75550842 137.55545044 C-16.3085929 144.39672038 -16.3085929 144.39672038 -19 146 C-22.17041016 146.35644531 -22.17041016 146.35644531 -26.0390625 146.328125 C-26.72052338 146.32625183 -27.40198425 146.32437866 -28.10409546 146.32244873 C-29.54145211 146.31573606 -30.97879074 146.30183693 -32.41601562 146.28125 C-34.62386923 146.250016 -36.83100959 146.240271 -39.0390625 146.234375 C-49.83653572 146.16346428 -49.83653572 146.16346428 -51 145 C-50.63163854 137.76936953 -48.73719007 131.75713359 -46.16015625 125.03125 C-45.56967751 123.45200996 -45.56967751 123.45200996 -44.9672699 121.84086609 C-43.67496376 118.39034463 -42.36861426 114.94531552 -41.0625 111.5 C-40.1550778 109.08287789 -39.24884396 106.66530934 -38.34375 104.24731445 C-36.94926532 100.52282403 -35.55437583 96.79849819 -34.15457153 93.07600403 C-29.54001113 80.80288237 -25.01251232 68.49843437 -20.5 56.1875 C-19.75684132 54.16280995 -19.01359681 52.1381514 -18.27026367 50.11352539 C-12.14424907 33.42207881 -6.05730641 16.71649821 0 0 Z M26 28 C22.82471034 34.50512883 20.09684911 41.13882249 17.625 47.9375 C17.35026855 48.670896 17.07553711 49.40429199 16.79248047 50.15991211 C15.46410443 53.89322558 14.79221433 56.22162469 16 60 C22.08166911 59.92619418 22.08166911 59.92619418 27.25 57.125 C31.60211015 49.35337473 35.16965856 42.2513191 35.0625 33.25 C35.05347656 32.26515625 35.04445313 31.2803125 35.03515625 30.265625 C35.02355469 29.51796875 35.01195312 28.7703125 35 28 C32.03 28 29.06 28 26 28 Z " fill="#064F9F" transform="translate(176,34)"/>
<path d="M0 0 C0.89074219 -0.020625 1.78148438 -0.04125 2.69921875 -0.0625 C10.68453796 -0.10885889 18.83003344 1.05968772 25.25 6.1875 C25.8790625 6.67089844 26.508125 7.15429688 27.15625 7.65234375 C29.68226347 10.18454843 30.69785698 12.14282992 30.8671875 15.73828125 C30.02997464 25.50126341 28.15698994 35.43602012 23.75 44.25 C13.19 44.25 2.63 44.25 -8.25 44.25 C-5.625 34.875 -5.625 34.875 -4.77880859 31.92431641 C-4.4667749 30.77455322 -4.4667749 30.77455322 -4.1484375 29.6015625 C-3.92849121 28.81604004 -3.70854492 28.03051758 -3.48193359 27.22119141 C-3.40539551 26.57069824 -3.32885742 25.92020508 -3.25 25.25 C-4.24 24.26 -4.24 24.26 -5.25 23.25 C-9.65801438 23.25 -11.67342169 23.73894195 -15 26.6875 C-18.5566545 31.57495568 -20.13567425 37.39185625 -20.375 43.375 C-18.13023663 49.1116175 -13.47661231 53.06024842 -9.140625 57.30078125 C8.50580923 74.58000941 8.50580923 74.58000941 8.91015625 83.96875 C8.67820363 100.10970703 0.14921054 121.86865869 -11.3046875 133.30078125 C-22.70514828 142.77411788 -39.48861173 148.20643775 -54.30078125 147.640625 C-63.98312218 146.35819574 -71.98550779 143.23637315 -79.125 136.5625 C-82.70809322 130.97708997 -81.7051028 126.55785635 -80.48046875 120.34765625 C-78.54057687 111.50779571 -76.06211549 102.85088513 -73.25 94.25 C-62.86675986 94.10190307 -52.60476854 94.54798179 -42.25 95.25 C-42.9287473 101.44464308 -44.5542956 107.21939552 -46.3125 113.1875 C-46.59416016 114.15751953 -46.87582031 115.12753906 -47.16601562 116.12695312 C-47.85646466 118.50256591 -48.55122001 120.87682705 -49.25 123.25 C-42.04992575 123.30614973 -42.04992575 123.30614973 -35.8125 120.3125 C-33.6225722 116.0202415 -31.77668689 111.82367284 -30.25 107.25 C-29.86972656 106.30640625 -29.48945312 105.3628125 -29.09765625 104.390625 C-28.03741866 100.95054079 -27.64854001 98.81895741 -28.25 95.25 C-31.21853605 90.68107064 -35.55296047 87.19749749 -39.64550781 83.66748047 C-42.23047934 81.38380051 -44.42567371 78.83373184 -46.6171875 76.1796875 C-48.28408303 74.15323471 -48.28408303 74.15323471 -50.4453125 72.0703125 C-54.95295467 67.27996106 -56.82482781 63.77283086 -57.0625 57.125 C-56.18183528 42.2880384 -50.16994587 25.26766953 -39.9375 14.25 C-27.97684964 3.67885572 -15.62883883 0.08892654 0 0 Z " fill="#064F9F" transform="translate(119.25,34.75)"/>
</svg>
