<?xml version="1.0" encoding="UTF-8"?>
<svg xmlns="http://www.w3.org/2000/svg" xmlns:xlink="http://www.w3.org/1999/xlink" width="592.4pt" height="361.29pt" viewBox="0 0 592.4 361.29" version="1.1">
<defs>
<clipPath id="clip1">
  <path d="M 484 129 L 592.398438 129 L 592.398438 195 L 484 195 Z M 484 129 "/>
</clipPath>
<clipPath id="clip2">
  <path d="M 398 333 L 418 333 L 418 361.289063 L 398 361.289063 Z M 398 333 "/>
</clipPath>
<clipPath id="clip3">
  <path d="M 571 333 L 592 333 L 592 361.289063 L 571 361.289063 Z M 571 333 "/>
</clipPath>
</defs>
<g id="surface1">
<path style=" stroke:none;fill-rule:nonzero;fill:rgb(95.698547%,51.399231%,12.5%);fill-opacity:1;" d="M 147.734375 250.109375 C 139.894531 250.109375 132.265625 249.222656 124.925781 247.550781 L 124.925781 47.914063 C 132.265625 46.238281 139.894531 45.355469 147.734375 45.355469 C 204.28125 45.355469 250.113281 91.1875 250.113281 147.730469 C 250.113281 204.277344 204.28125 250.109375 147.734375 250.109375 Z M 147.734375 18.386719 C 117.460938 18.386719 89.605469 28.800781 67.570313 46.226563 L 86.808594 65.46875 C 90.816406 62.484375 95.035156 59.800781 99.457031 57.441406 L 99.457031 238.023438 C 94.210938 235.214844 89.242188 231.96875 84.597656 228.308594 L 66.109375 248.0625 C 88.367188 266.203125 116.785156 277.074219 147.734375 277.074219 C 219.175781 277.074219 277.078125 219.171875 277.078125 147.730469 C 277.078125 76.292969 219.175781 18.386719 147.734375 18.386719 Z M 68.367188 83.046875 L 49.226563 63.90625 C 30 86.480469 18.390625 115.757813 18.390625 147.730469 C 18.390625 179.042969 29.515625 207.746094 48.019531 230.121094 L 66.644531 210.21875 C 53.296875 192.925781 45.359375 171.253906 45.359375 147.730469 C 45.359375 123.199219 53.984375 100.675781 68.367188 83.046875 "/>
<path style=" stroke:none;fill-rule:nonzero;fill:rgb(95.698547%,51.399231%,12.5%);fill-opacity:1;" d="M 192.183594 219.894531 L 166.714844 219.894531 L 166.714844 117.019531 L 192.183594 117.019531 L 192.183594 219.894531 "/>
<path style=" stroke:none;fill-rule:nonzero;fill:rgb(95.698547%,51.399231%,12.5%);fill-opacity:1;" d="M 141.242188 118.265625 L 141.242188 93.046875 L 217.652344 93.046875 L 217.652344 118.265625 L 141.242188 118.265625 "/>
<path style=" stroke:none;fill-rule:nonzero;fill:rgb(95.698547%,51.399231%,12.5%);fill-opacity:1;" d="M 147.734375 286.566406 C 71.066406 286.566406 8.902344 224.402344 8.902344 147.730469 C 8.902344 71.0625 71.066406 8.898438 147.734375 8.898438 C 224.40625 8.898438 286.570313 71.0625 286.570313 147.730469 C 286.570313 224.402344 224.40625 286.566406 147.734375 286.566406 Z M 147.734375 -0.00390625 C 66.144531 -0.00390625 0 66.140625 0 147.730469 C 0 229.320313 66.144531 295.46875 147.734375 295.46875 C 229.324219 295.46875 295.472656 229.320313 295.472656 147.730469 C 295.472656 66.140625 229.324219 -0.00390625 147.734375 -0.00390625 "/>
<path style=" stroke:none;fill-rule:nonzero;fill:rgb(95.698547%,51.399231%,12.5%);fill-opacity:1;" d="M 407.285156 99.425781 L 409.414063 131.085938 L 407.285156 131.085938 C 405.867188 126.371094 404.136719 122.320313 402.101563 118.929688 C 400.0625 115.542969 397.742188 112.773438 395.132813 110.621094 C 392.519531 108.46875 389.636719 106.890625 386.476563 105.882813 C 383.320313 104.878906 379.886719 104.371094 376.179688 104.371094 C 369.949219 104.371094 364.433594 105.894531 359.628906 108.9375 C 354.820313 111.984375 350.996094 116.664063 348.160156 122.980469 C 346.601563 126.460938 345.410156 130.410156 344.589844 134.828125 C 343.765625 139.246094 343.351563 144.203125 343.351563 149.695313 C 343.351563 158.074219 344.703125 165.378906 347.402344 171.601563 C 348.777344 174.761719 350.503906 177.53125 352.589844 179.910156 C 354.671875 182.292969 357.039063 184.28125 359.695313 185.886719 C 362.351563 187.488281 365.246094 188.699219 368.382813 189.523438 C 371.519531 190.347656 374.78125 190.761719 378.171875 190.761719 C 382.015625 190.761719 385.335938 190.371094 388.125 189.59375 C 390.917969 188.816406 393.460938 187.625 395.75 186.023438 C 398.039063 184.421875 400.246094 182.40625 402.375 179.980469 C 404.503906 177.554688 406.847656 174.714844 409.414063 171.464844 L 411.542969 172.839844 C 409.210938 176.957031 406.691406 180.527344 403.988281 183.550781 C 401.289063 186.570313 398.359375 189.070313 395.199219 191.035156 C 392.039063 193.003906 388.617188 194.457031 384.933594 195.398438 C 381.246094 196.335938 377.277344 196.804688 373.019531 196.804688 C 357.542969 196.804688 345.59375 191.082031 337.171875 179.636719 C 330.855469 171.121094 327.695313 161.09375 327.695313 149.558594 C 327.695313 144.019531 328.449219 138.652344 329.960938 133.453125 C 331.472656 128.257813 333.808594 123.464844 336.96875 119.066406 C 339.164063 115.953125 341.671875 113.175781 344.484375 110.722656 C 347.300781 108.277344 350.347656 106.214844 353.617188 104.542969 C 356.890625 102.871094 360.335938 101.601563 363.953125 100.730469 C 367.570313 99.863281 371.277344 99.425781 375.078125 99.425781 C 381.808594 99.425781 388.445313 101.074219 394.992188 104.371094 C 397.007813 105.425781 398.382813 105.929688 399.113281 105.882813 C 400.578125 105.882813 401.804688 105.277344 402.789063 104.0625 C 403.773438 102.851563 404.46875 101.304688 404.882813 99.425781 L 407.285156 99.425781 "/>
<path style=" stroke:none;fill-rule:nonzero;fill:rgb(95.698547%,51.399231%,12.5%);fill-opacity:1;" d="M 433.78125 151.480469 L 462.898438 151.480469 C 462.714844 147.453125 462.234375 144.613281 461.457031 142.964844 C 460.3125 140.402344 458.605469 138.386719 456.339844 136.921875 C 454.074219 135.457031 451.703125 134.726563 449.230469 134.726563 C 447.355469 134.726563 445.546875 135.101563 443.808594 135.859375 C 442.066406 136.613281 440.488281 137.714844 439.066406 139.152344 C 437.648438 140.597656 436.46875 142.347656 435.53125 144.40625 C 434.59375 146.46875 434.011719 148.824219 433.78125 151.480469 Z M 433.78125 155.464844 C 433.78125 160.132813 434.398438 164.320313 435.636719 168.03125 C 436.871094 171.738281 438.542969 174.886719 440.648438 177.472656 C 442.753906 180.058594 445.191406 182.027344 447.960938 183.378906 C 450.730469 184.730469 453.648438 185.402344 456.71875 185.402344 C 460.839844 185.402344 464.421875 184.273438 467.464844 182.007813 C 470.507813 179.738281 473.058594 175.859375 475.121094 170.363281 L 477.25 171.738281 C 476.746094 174.808594 475.785156 177.828125 474.367188 180.804688 C 472.945313 183.78125 471.128906 186.433594 468.90625 188.769531 C 466.683594 191.105469 464.097656 192.992188 461.144531 194.4375 C 458.191406 195.878906 454.976563 196.597656 451.496094 196.597656 C 447.742188 196.597656 444.207031 195.832031 440.886719 194.296875 C 437.566406 192.765625 434.660156 190.589844 432.167969 187.773438 C 429.671875 184.957031 427.691406 181.550781 426.226563 177.542969 C 424.761719 173.535156 424.03125 169.039063 424.03125 164.046875 C 424.03125 158.601563 424.773438 153.757813 426.261719 149.523438 C 427.75 145.289063 429.800781 141.707031 432.40625 138.777344 C 435.015625 135.847656 438.097656 133.625 441.644531 132.113281 C 445.191406 130.605469 449.003906 129.847656 453.078125 129.847656 C 456.554688 129.847656 459.773438 130.457031 462.726563 131.667969 C 465.679688 132.882813 468.230469 134.613281 470.382813 136.855469 C 472.535156 139.097656 474.21875 141.785156 475.429688 144.921875 C 476.640625 148.058594 477.25 151.574219 477.25 155.464844 L 433.78125 155.464844 "/>
<g clip-path="url(#clip1)" clip-rule="nonzero">
<path style=" stroke:none;fill-rule:nonzero;fill:rgb(95.698547%,51.399231%,12.5%);fill-opacity:1;" d="M 506.699219 143.308594 C 511.273438 138.730469 513.976563 136.097656 514.800781 135.410156 C 516.863281 133.671875 519.082031 132.320313 521.460938 131.359375 C 523.84375 130.398438 526.199219 129.917969 528.535156 129.917969 C 532.519531 129.917969 535.917969 131.050781 538.734375 133.316406 C 541.550781 135.582031 543.4375 138.914063 544.398438 143.308594 C 549.113281 137.859375 553.097656 134.269531 556.347656 132.527344 C 559.597656 130.789063 562.9375 129.917969 566.375 129.917969 C 568.664063 129.917969 570.8125 130.308594 572.828125 131.085938 C 574.84375 131.863281 576.59375 133.15625 578.082031 134.964844 C 579.570313 136.773438 580.75 139.1875 581.617188 142.210938 C 582.488281 145.230469 582.925781 148.964844 582.925781 153.402344 L 582.925781 180.460938 C 582.925781 182.519531 582.980469 184.296875 583.09375 185.78125 C 583.210938 187.269531 583.5625 188.496094 584.160156 189.457031 C 584.753906 190.417969 585.691406 191.117188 586.976563 191.550781 C 588.257813 191.988281 590.066406 192.203125 592.398438 192.203125 L 592.398438 194.675781 L 561.359375 194.675781 L 561.359375 192.203125 L 562.664063 192.203125 C 564.953125 192.203125 566.808594 191.839844 568.226563 191.105469 C 569.644531 190.371094 570.652344 189.042969 571.25 187.121094 C 571.429688 186.433594 571.523438 184.214844 571.523438 180.460938 L 571.523438 153.402344 C 571.523438 150.382813 571.296875 147.898438 570.839844 145.953125 C 570.378906 144.007813 569.703125 142.449219 568.8125 141.28125 C 567.917969 140.113281 566.832031 139.304688 565.550781 138.84375 C 564.265625 138.386719 562.777344 138.160156 561.085938 138.160156 C 559.847656 138.160156 558.648438 138.296875 557.480469 138.570313 C 556.3125 138.84375 555.089844 139.324219 553.804688 140.011719 C 552.523438 140.699219 551.140625 141.605469 549.652344 142.726563 C 548.164063 143.847656 546.527344 145.253906 544.742188 146.949219 L 544.878906 180.460938 C 544.878906 182.703125 544.925781 184.453125 545.015625 185.714844 C 545.109375 186.972656 545.28125 187.933594 545.53125 188.597656 C 545.78125 189.261719 546.136719 189.753906 546.597656 190.074219 C 547.054688 190.394531 547.625 190.761719 548.3125 191.171875 C 548.953125 191.539063 549.847656 191.804688 550.992188 191.964844 C 552.136719 192.121094 553.507813 192.203125 555.113281 192.203125 L 555.113281 194.675781 L 523.316406 194.675781 L 523.316406 192.203125 C 525.789063 192.203125 527.722656 192.03125 529.117188 191.6875 C 530.515625 191.34375 531.53125 190.726563 532.175781 189.835938 C 532.816406 188.941406 533.203125 187.738281 533.34375 186.230469 C 533.480469 184.71875 533.550781 182.796875 533.550781 180.460938 L 533.550781 153.402344 C 533.550781 150.472656 533.285156 148.023438 532.757813 146.054688 C 532.230469 144.089844 531.488281 142.507813 530.527344 141.316406 C 529.566406 140.128906 528.433594 139.269531 527.128906 138.742188 C 525.824219 138.214844 524.390625 137.953125 522.835938 137.953125 C 521.324219 137.953125 519.769531 138.238281 518.167969 138.8125 C 516.5625 139.382813 515.042969 140.09375 513.597656 140.941406 C 512.15625 141.785156 510.84375 142.726563 509.652344 143.753906 C 508.460938 144.785156 507.476563 145.78125 506.699219 146.742188 L 506.699219 180.460938 C 506.699219 182.613281 506.765625 184.316406 506.902344 185.574219 C 507.039063 186.835938 507.246094 187.84375 507.523438 188.597656 C 507.796875 189.355469 508.148438 189.914063 508.585938 190.28125 C 509.019531 190.648438 509.511719 190.988281 510.0625 191.3125 C 511.207031 191.90625 513.496094 192.203125 516.929688 192.203125 L 516.929688 194.675781 L 485.820313 194.675781 L 485.820313 192.203125 C 487.925781 192.203125 489.609375 192.042969 490.867188 191.722656 C 492.128906 191.402344 493.089844 190.820313 493.753906 189.972656 C 494.417969 189.125 494.851563 187.933594 495.058594 186.402344 C 495.265625 184.867188 495.367188 182.886719 495.367188 180.460938 L 495.367188 156.425781 C 495.367188 152.351563 495.300781 149.15625 495.160156 146.847656 C 495.023438 144.535156 494.769531 142.792969 494.40625 141.625 C 494.039063 140.460938 493.535156 139.738281 492.894531 139.464844 C 492.253906 139.1875 491.429688 139.050781 490.421875 139.050781 C 489.140625 139.050781 487.605469 139.394531 485.820313 140.082031 L 484.789063 137.609375 L 503.746094 129.917969 L 506.699219 129.917969 L 506.699219 143.308594 "/>
</g>
<path style=" stroke:none;fill-rule:nonzero;fill:rgb(20.399475%,58.399963%,75.698853%);fill-opacity:1;" d="M 15.71875 343.167969 L 20.425781 344.015625 C 19.480469 347.222656 18.085938 349.625 16.238281 351.222656 C 14.394531 352.820313 12.253906 353.617188 9.824219 353.617188 C 7.101563 353.617188 4.941406 352.621094 3.347656 350.632813 C 1.757813 348.644531 0.957031 345.660156 0.957031 341.679688 C 0.957031 338.269531 1.539063 335.261719 2.695313 332.664063 C 3.855469 330.0625 5.335938 328.132813 7.128906 326.863281 C 8.925781 325.601563 10.867188 324.96875 12.960938 324.96875 C 15.316406 324.96875 17.277344 325.742188 18.847656 327.292969 C 20.414063 328.839844 21.339844 331.058594 21.613281 333.945313 L 17.136719 334.472656 C 16.871094 332.796875 16.382813 331.613281 15.664063 330.921875 C 14.949219 330.226563 14.015625 329.882813 12.871094 329.882813 C 11.703125 329.882813 10.578125 330.304688 9.496094 331.148438 C 8.414063 331.992188 7.492188 333.402344 6.730469 335.390625 C 5.96875 337.371094 5.589844 339.558594 5.589844 341.9375 C 5.589844 344.167969 6.03125 345.878906 6.910156 347.070313 C 7.789063 348.257813 8.859375 348.855469 10.117188 348.855469 C 11.3125 348.855469 12.417969 348.386719 13.4375 347.445313 C 14.453125 346.507813 15.214844 345.082031 15.71875 343.167969 "/>
<path style=" stroke:none;fill-rule:nonzero;fill:rgb(20.399475%,58.399963%,75.698853%);fill-opacity:1;" d="M 38.039063 340.9375 C 38.039063 339.613281 37.730469 338.574219 37.101563 337.816406 C 36.476563 337.0625 35.683594 336.683594 34.726563 336.683594 C 33.917969 336.683594 33.160156 336.960938 32.453125 337.515625 C 31.746094 338.070313 31.125 339.035156 30.597656 340.40625 C 30.066406 341.78125 29.800781 343.203125 29.800781 344.679688 C 29.800781 346.179688 30.128906 347.34375 30.777344 348.175781 C 31.425781 349.007813 32.230469 349.421875 33.191406 349.421875 C 34.402344 349.421875 35.433594 348.777344 36.277344 347.492188 C 37.453125 345.730469 38.039063 343.542969 38.039063 340.9375 Z M 25.359375 344.8125 C 25.359375 341.523438 26.101563 338.726563 27.589844 336.417969 C 29.238281 333.886719 31.628906 332.621094 34.753906 332.621094 C 37.097656 332.621094 38.964844 333.414063 40.355469 335.003906 C 41.746094 336.589844 42.445313 338.800781 42.445313 341.636719 C 42.445313 344.960938 41.578125 347.785156 39.84375 350.109375 C 38.113281 352.4375 35.847656 353.597656 33.050781 353.597656 C 30.773438 353.597656 28.917969 352.8125 27.496094 351.234375 C 26.070313 349.660156 25.359375 347.519531 25.359375 344.8125 "/>
<path style=" stroke:none;fill-rule:nonzero;fill:rgb(20.399475%,58.399963%,75.698853%);fill-opacity:1;" d="M 49.71875 333.074219 L 53.929688 333.074219 L 53.492188 335.511719 C 55.15625 333.585938 56.898438 332.621094 58.71875 332.621094 C 61.148438 332.621094 62.554688 333.800781 62.941406 336.152344 C 63.539063 335.121094 64.378906 334.273438 65.457031 333.613281 C 66.539063 332.949219 67.632813 332.621094 68.738281 332.621094 C 70.039063 332.621094 71.066406 333.035156 71.828125 333.859375 C 72.59375 334.6875 72.972656 335.839844 72.972656 337.3125 C 72.972656 338.007813 72.828125 339.199219 72.539063 340.886719 L 70.441406 353.144531 L 65.976563 353.144531 L 68.074219 340.878906 C 68.339844 339.34375 68.46875 338.472656 68.46875 338.273438 C 68.46875 337.691406 68.320313 337.246094 68.027344 336.941406 C 67.734375 336.628906 67.328125 336.476563 66.816406 336.476563 C 65.726563 336.476563 64.746094 337.144531 63.875 338.476563 C 63.179688 339.519531 62.601563 341.363281 62.144531 344.003906 L 60.597656 353.144531 L 56.128906 353.144531 L 58.207031 341.011719 C 58.445313 339.613281 58.566406 338.714844 58.566406 338.308594 C 58.566406 337.742188 58.40625 337.296875 58.09375 336.96875 C 57.777344 336.640625 57.378906 336.476563 56.886719 336.476563 C 56.234375 336.476563 55.554688 336.78125 54.855469 337.394531 C 54.152344 338.003906 53.597656 338.894531 53.1875 340.066406 C 52.941406 340.761719 52.652344 342.046875 52.320313 343.921875 L 50.722656 353.144531 L 46.285156 353.144531 L 49.71875 333.074219 "/>
<path style=" stroke:none;fill-rule:nonzero;fill:rgb(20.399475%,58.399963%,75.698853%);fill-opacity:1;" d="M 80.488281 333.074219 L 84.699219 333.074219 L 84.265625 335.511719 C 85.925781 333.585938 87.667969 332.621094 89.488281 332.621094 C 91.917969 332.621094 93.328125 333.800781 93.710938 336.152344 C 94.308594 335.121094 95.148438 334.273438 96.226563 333.613281 C 97.308594 332.949219 98.402344 332.621094 99.511719 332.621094 C 100.808594 332.621094 101.839844 333.035156 102.597656 333.859375 C 103.363281 334.6875 103.742188 335.839844 103.742188 337.3125 C 103.742188 338.007813 103.597656 339.199219 103.308594 340.886719 L 101.210938 353.144531 L 96.746094 353.144531 L 98.84375 340.878906 C 99.109375 339.34375 99.238281 338.472656 99.238281 338.273438 C 99.238281 337.691406 99.09375 337.246094 98.796875 336.941406 C 98.503906 336.628906 98.097656 336.476563 97.585938 336.476563 C 96.496094 336.476563 95.515625 337.144531 94.644531 338.476563 C 93.953125 339.519531 93.375 341.363281 92.914063 344.003906 L 91.367188 353.144531 L 86.898438 353.144531 L 88.976563 341.011719 C 89.214844 339.613281 89.335938 338.714844 89.335938 338.308594 C 89.335938 337.742188 89.179688 337.296875 88.863281 336.96875 C 88.546875 336.640625 88.148438 336.476563 87.65625 336.476563 C 87.003906 336.476563 86.324219 336.78125 85.625 337.394531 C 84.921875 338.003906 84.367188 338.894531 83.957031 340.066406 C 83.710938 340.761719 83.421875 342.046875 83.089844 343.921875 L 81.496094 353.144531 L 77.054688 353.144531 L 80.488281 333.074219 "/>
<path style=" stroke:none;fill-rule:nonzero;fill:rgb(20.399475%,58.399963%,75.698853%);fill-opacity:1;" d="M 112.925781 325.441406 L 117.386719 325.441406 L 116.535156 330.351563 L 112.09375 330.351563 Z M 111.621094 333.074219 L 116.0625 333.074219 L 112.621094 353.144531 L 108.179688 353.144531 L 111.621094 333.074219 "/>
<path style=" stroke:none;fill-rule:nonzero;fill:rgb(20.399475%,58.399963%,75.698853%);fill-opacity:1;" d="M 120.449219 337.101563 L 121.171875 333.074219 L 123.472656 333.074219 L 124.03125 329.863281 L 129.210938 326.070313 L 127.941406 333.074219 L 130.75 333.074219 L 130.066406 337.101563 L 127.210938 337.101563 L 125.65625 345.484375 C 125.386719 346.988281 125.253906 347.863281 125.253906 348.109375 C 125.253906 348.558594 125.371094 348.894531 125.613281 349.113281 C 125.851563 349.332031 126.265625 349.441406 126.851563 349.441406 C 127.035156 349.441406 127.550781 349.398438 128.386719 349.308594 L 127.648438 353.332031 C 126.859375 353.511719 126.066406 353.597656 125.265625 353.597656 C 123.71875 353.597656 122.558594 353.246094 121.792969 352.539063 C 121.023438 351.835938 120.640625 350.800781 120.640625 349.441406 C 120.640625 348.8125 120.839844 347.386719 121.246094 345.167969 L 122.722656 337.101563 L 120.449219 337.101563 "/>
<path style=" stroke:none;fill-rule:nonzero;fill:rgb(20.399475%,58.399963%,75.698853%);fill-opacity:1;" d="M 135.757813 333.074219 L 139.96875 333.074219 L 139.53125 335.511719 C 141.195313 333.585938 142.9375 332.621094 144.753906 332.621094 C 147.1875 332.621094 148.59375 333.800781 148.976563 336.152344 C 149.574219 335.121094 150.414063 334.273438 151.496094 333.613281 C 152.578125 332.949219 153.671875 332.621094 154.777344 332.621094 C 156.074219 332.621094 157.105469 333.035156 157.867188 333.859375 C 158.632813 334.6875 159.011719 335.839844 159.011719 337.3125 C 159.011719 338.007813 158.867188 339.199219 158.578125 340.886719 L 156.480469 353.144531 L 152.011719 353.144531 L 154.109375 340.878906 C 154.375 339.34375 154.507813 338.472656 154.507813 338.273438 C 154.507813 337.691406 154.359375 337.246094 154.066406 336.941406 C 153.769531 336.628906 153.367188 336.476563 152.855469 336.476563 C 151.765625 336.476563 150.785156 337.144531 149.910156 338.476563 C 149.21875 339.519531 148.640625 341.363281 148.179688 344.003906 L 146.636719 353.144531 L 142.167969 353.144531 L 144.246094 341.011719 C 144.484375 339.613281 144.605469 338.714844 144.605469 338.308594 C 144.605469 337.742188 144.445313 337.296875 144.132813 336.96875 C 143.816406 336.640625 143.414063 336.476563 142.925781 336.476563 C 142.269531 336.476563 141.59375 336.78125 140.890625 337.394531 C 140.191406 338.003906 139.636719 338.894531 139.222656 340.066406 C 138.980469 340.761719 138.691406 342.046875 138.355469 343.921875 L 136.761719 353.144531 L 132.320313 353.144531 L 135.757813 333.074219 "/>
<path style=" stroke:none;fill-rule:nonzero;fill:rgb(20.399475%,58.399963%,75.698853%);fill-opacity:1;" d="M 175.695313 341.484375 L 175.714844 340.953125 C 175.714844 339.429688 175.433594 338.304688 174.875 337.570313 C 174.3125 336.84375 173.585938 336.476563 172.691406 336.476563 C 171.785156 336.476563 170.960938 336.898438 170.226563 337.742188 C 169.488281 338.585938 168.992188 339.835938 168.742188 341.484375 Z M 179.457031 344.792969 L 168.285156 344.792969 L 168.285156 345.300781 C 168.285156 346.652344 168.601563 347.726563 169.230469 348.53125 C 169.863281 349.339844 170.617188 349.742188 171.5 349.742188 C 172.960938 349.742188 174.113281 348.8125 174.960938 346.945313 L 178.945313 347.757813 C 178.164063 349.710938 177.125 351.171875 175.828125 352.144531 C 174.53125 353.113281 173.074219 353.597656 171.460938 353.597656 C 169.320313 353.597656 167.539063 352.761719 166.121094 351.09375 C 164.707031 349.425781 163.996094 347.160156 163.996094 344.300781 C 163.996094 341.214844 164.804688 338.496094 166.417969 336.144531 C 168.027344 333.796875 170.285156 332.621094 173.179688 332.621094 C 175.136719 332.621094 176.71875 333.359375 177.933594 334.839844 C 179.152344 336.320313 179.757813 338.460938 179.757813 341.257813 C 179.757813 342.578125 179.65625 343.757813 179.457031 344.792969 "/>
<path style=" stroke:none;fill-rule:nonzero;fill:rgb(20.399475%,58.399963%,75.698853%);fill-opacity:1;" d="M 187.128906 333.074219 L 191.359375 333.074219 L 190.921875 335.683594 C 192.015625 334.535156 193.015625 333.738281 193.929688 333.292969 C 194.839844 332.84375 195.777344 332.621094 196.746094 332.621094 C 198.066406 332.621094 199.121094 333.078125 199.914063 334 C 200.703125 334.917969 201.101563 336.179688 201.101563 337.777344 C 201.101563 338.472656 200.9375 339.800781 200.613281 341.765625 L 198.6875 353.144531 L 194.21875 353.144531 L 196.171875 341.769531 C 196.460938 340.066406 196.601563 339.046875 196.601563 338.707031 C 196.601563 337.988281 196.429688 337.4375 196.085938 337.054688 C 195.738281 336.667969 195.289063 336.476563 194.738281 336.476563 C 194.136719 336.476563 193.523438 336.714844 192.894531 337.195313 C 191.992188 337.875 191.320313 338.683594 190.878906 339.621094 C 190.441406 340.5625 190 342.320313 189.558594 344.902344 L 188.132813 353.144531 L 183.691406 353.144531 L 187.128906 333.074219 "/>
<path style=" stroke:none;fill-rule:nonzero;fill:rgb(20.399475%,58.399963%,75.698853%);fill-opacity:1;" d="M 206.484375 337.101563 L 207.210938 333.074219 L 209.511719 333.074219 L 210.070313 329.863281 L 215.25 326.070313 L 213.976563 333.074219 L 216.785156 333.074219 L 216.105469 337.101563 L 213.25 337.101563 L 211.695313 345.484375 C 211.425781 346.988281 211.289063 347.863281 211.289063 348.109375 C 211.289063 348.558594 211.410156 348.894531 211.648438 349.113281 C 211.890625 349.332031 212.300781 349.441406 212.886719 349.441406 C 213.074219 349.441406 213.585938 349.398438 214.425781 349.308594 L 213.6875 353.332031 C 212.898438 353.511719 212.105469 353.597656 211.304688 353.597656 C 209.753906 353.597656 208.597656 353.246094 207.828125 352.539063 C 207.058594 351.835938 206.675781 350.800781 206.675781 349.441406 C 206.675781 348.8125 206.878906 347.386719 207.28125 345.167969 L 208.761719 337.101563 L 206.484375 337.101563 "/>
<path style=" stroke:none;fill-rule:nonzero;fill:rgb(20.399475%,58.399963%,75.698853%);fill-opacity:1;" d="M 219.679688 347.910156 L 224.160156 347.910156 L 223.425781 352.238281 C 222.996094 354.769531 222.308594 356.546875 221.363281 357.566406 C 220.417969 358.585938 219.214844 359.117188 217.753906 359.152344 L 218.1875 356.640625 C 218.917969 356.4375 219.492188 356.078125 219.90625 355.5625 C 220.324219 355.046875 220.632813 354.238281 220.835938 353.144531 L 218.773438 353.144531 L 219.679688 347.910156 "/>
<path style=" stroke:none;fill-rule:nonzero;fill:rgb(20.399475%,58.399963%,75.698853%);fill-opacity:1;" d="M 248.957031 337.515625 L 251.417969 337.515625 C 253.761719 337.515625 255.34375 337.367188 256.171875 337.070313 C 256.996094 336.777344 257.683594 336.230469 258.230469 335.4375 C 258.777344 334.644531 259.054688 333.769531 259.054688 332.808594 C 259.054688 331.765625 258.707031 331.003906 258.011719 330.523438 C 257.609375 330.222656 256.726563 330.070313 255.367188 330.070313 L 250.238281 330.070313 Z M 246.269531 353.144531 L 241.609375 353.144531 L 246.347656 325.441406 L 256.445313 325.441406 C 258.308594 325.441406 259.699219 325.683594 260.621094 326.175781 C 261.539063 326.667969 262.285156 327.460938 262.859375 328.554688 C 263.433594 329.652344 263.722656 331.035156 263.722656 332.710938 C 263.722656 335.167969 263.117188 337.132813 261.917969 338.613281 C 260.714844 340.09375 258.988281 341.007813 256.734375 341.363281 C 257.363281 342.058594 257.980469 343.042969 258.585938 344.320313 C 259.589844 346.460938 260.691406 349.402344 261.894531 353.144531 L 256.871094 353.144531 C 256.671875 352.363281 255.996094 350.238281 254.847656 346.773438 C 254.246094 344.996094 253.691406 343.742188 253.1875 343.015625 C 252.820313 342.496094 252.445313 342.144531 252.066406 341.957031 C 251.6875 341.769531 251.050781 341.671875 250.152344 341.671875 L 248.242188 341.671875 L 246.269531 353.144531 "/>
<path style=" stroke:none;fill-rule:nonzero;fill:rgb(20.399475%,58.399963%,75.698853%);fill-opacity:1;" d="M 279.183594 341.484375 L 279.203125 340.953125 C 279.203125 339.429688 278.921875 338.304688 278.359375 337.570313 C 277.800781 336.84375 277.070313 336.476563 276.179688 336.476563 C 275.269531 336.476563 274.449219 336.898438 273.710938 337.742188 C 272.972656 338.585938 272.480469 339.835938 272.226563 341.484375 Z M 282.941406 344.792969 L 271.773438 344.792969 L 271.773438 345.300781 C 271.773438 346.652344 272.089844 347.726563 272.71875 348.53125 C 273.347656 349.339844 274.105469 349.742188 274.988281 349.742188 C 276.449219 349.742188 277.601563 348.8125 278.445313 346.945313 L 282.433594 347.757813 C 281.652344 349.710938 280.613281 351.171875 279.3125 352.144531 C 278.015625 353.113281 276.5625 353.597656 274.949219 353.597656 C 272.808594 353.597656 271.027344 352.761719 269.609375 351.09375 C 268.191406 349.425781 267.484375 347.160156 267.484375 344.300781 C 267.484375 341.214844 268.289063 338.496094 269.902344 336.144531 C 271.515625 333.796875 273.769531 332.621094 276.667969 332.621094 C 278.621094 332.621094 280.203125 333.359375 281.421875 334.839844 C 282.636719 336.320313 283.246094 338.460938 283.246094 341.257813 C 283.246094 342.578125 283.144531 343.757813 282.941406 344.792969 "/>
<path style=" stroke:none;fill-rule:nonzero;fill:rgb(20.399475%,58.399963%,75.698853%);fill-opacity:1;" d="M 287.199219 353.144531 L 291.941406 325.441406 L 296.402344 325.441406 L 291.640625 353.144531 L 287.199219 353.144531 "/>
<path style=" stroke:none;fill-rule:nonzero;fill:rgb(20.399475%,58.399963%,75.698853%);fill-opacity:1;" d="M 303.265625 325.441406 L 307.726563 325.441406 L 306.875 330.351563 L 302.433594 330.351563 Z M 301.960938 333.074219 L 306.402344 333.074219 L 302.964844 353.144531 L 298.523438 353.144531 L 301.960938 333.074219 "/>
<path style=" stroke:none;fill-rule:nonzero;fill:rgb(20.399475%,58.399963%,75.698853%);fill-opacity:1;" d="M 320.265625 343.789063 C 319.996094 343.878906 319.644531 343.960938 319.214844 344.035156 C 317.183594 344.335938 315.847656 344.742188 315.199219 345.25 C 314.554688 345.757813 314.230469 346.441406 314.230469 347.292969 C 314.230469 347.960938 314.414063 348.5 314.777344 348.914063 C 315.144531 349.328125 315.609375 349.535156 316.175781 349.535156 C 316.765625 349.535156 317.328125 349.363281 317.867188 349.015625 C 318.410156 348.671875 318.84375 348.1875 319.164063 347.566406 C 319.492188 346.945313 319.804688 345.925781 320.101563 344.503906 Z M 316.175781 338.761719 L 311.828125 338.308594 C 312.351563 336.457031 313.253906 335.046875 314.535156 334.074219 C 315.816406 333.105469 317.441406 332.621094 319.410156 332.621094 C 321.417969 332.621094 322.960938 333.117188 324.039063 334.109375 C 325.117188 335.101563 325.65625 336.417969 325.65625 338.0625 C 325.65625 338.640625 325.605469 339.253906 325.503906 339.902344 C 325.402344 340.554688 325.023438 342.335938 324.367188 345.242188 C 323.820313 347.632813 323.550781 349.304688 323.550781 350.257813 C 323.550781 351.144531 323.695313 352.105469 323.992188 353.144531 L 319.558594 353.144531 C 319.378906 352.410156 319.269531 351.648438 319.230469 350.863281 C 318.597656 351.75 317.871094 352.425781 317.054688 352.894531 C 316.234375 353.363281 315.417969 353.597656 314.605469 353.597656 C 313.320313 353.597656 312.238281 353.070313 311.363281 352.011719 C 310.488281 350.953125 310.054688 349.542969 310.054688 347.777344 C 310.054688 345.75 310.570313 344.1875 311.601563 343.089844 C 312.625 341.992188 314.335938 341.332031 316.742188 341.105469 C 318.859375 340.890625 320.277344 340.632813 320.996094 340.332031 C 321.230469 339.5625 321.347656 338.949219 321.347656 338.496094 C 321.347656 337.894531 321.140625 337.40625 320.726563 337.03125 C 320.3125 336.660156 319.746094 336.476563 319.03125 336.476563 C 317.472656 336.476563 316.519531 337.238281 316.175781 338.761719 "/>
<path style=" stroke:none;fill-rule:nonzero;fill:rgb(20.399475%,58.399963%,75.698853%);fill-opacity:1;" d="M 335.742188 344.972656 C 335.742188 346.351563 336.058594 347.453125 336.695313 348.285156 C 337.328125 349.117188 338.0625 349.535156 338.890625 349.535156 C 339.554688 349.535156 340.214844 349.253906 340.867188 348.691406 C 341.519531 348.132813 342.097656 347.121094 342.601563 345.664063 C 343.101563 344.207031 343.355469 342.675781 343.355469 341.074219 C 343.355469 339.597656 343.050781 338.464844 342.441406 337.667969 C 341.832031 336.871094 341.105469 336.476563 340.265625 336.476563 C 338.984375 336.476563 337.910156 337.308594 337.042969 338.976563 C 336.175781 340.640625 335.742188 342.640625 335.742188 344.972656 Z M 329.75 353.144531 L 334.492188 325.441406 L 338.960938 325.441406 L 337.371094 334.699219 C 338.238281 333.90625 339.015625 333.359375 339.707031 333.066406 C 340.398438 332.769531 341.140625 332.621094 341.933594 332.621094 C 343.65625 332.621094 345.042969 333.320313 346.097656 334.71875 C 347.15625 336.117188 347.683594 338.191406 347.683594 340.9375 C 347.683594 343.445313 347.269531 345.699219 346.445313 347.710938 C 345.625 349.722656 344.589844 351.203125 343.34375 352.160156 C 342.097656 353.117188 340.835938 353.597656 339.550781 353.597656 C 337.199219 353.597656 335.46875 352.351563 334.363281 349.855469 L 333.792969 353.144531 L 329.75 353.144531 "/>
<path style=" stroke:none;fill-rule:nonzero;fill:rgb(20.399475%,58.399963%,75.698853%);fill-opacity:1;" d="M 356.796875 325.441406 L 361.257813 325.441406 L 360.40625 330.351563 L 355.964844 330.351563 Z M 355.492188 333.074219 L 359.933594 333.074219 L 356.492188 353.144531 L 352.050781 353.144531 L 355.492188 333.074219 "/>
<path style=" stroke:none;fill-rule:nonzero;fill:rgb(20.399475%,58.399963%,75.698853%);fill-opacity:1;" d="M 363.488281 353.144531 L 368.230469 325.441406 L 372.691406 325.441406 L 367.929688 353.144531 L 363.488281 353.144531 "/>
<path style=" stroke:none;fill-rule:nonzero;fill:rgb(20.399475%,58.399963%,75.698853%);fill-opacity:1;" d="M 379.554688 325.441406 L 384.015625 325.441406 L 383.164063 330.351563 L 378.722656 330.351563 Z M 378.25 333.074219 L 382.691406 333.074219 L 379.253906 353.144531 L 374.8125 353.144531 L 378.25 333.074219 "/>
<path style=" stroke:none;fill-rule:nonzero;fill:rgb(20.399475%,58.399963%,75.698853%);fill-opacity:1;" d="M 387.078125 337.101563 L 387.804688 333.074219 L 390.101563 333.074219 L 390.660156 329.863281 L 395.84375 326.070313 L 394.570313 333.074219 L 397.378906 333.074219 L 396.695313 337.101563 L 393.84375 337.101563 L 392.285156 345.484375 C 392.019531 346.988281 391.882813 347.863281 391.882813 348.109375 C 391.882813 348.558594 392.003906 348.894531 392.242188 349.113281 C 392.480469 349.332031 392.894531 349.441406 393.480469 349.441406 C 393.664063 349.441406 394.179688 349.398438 395.015625 349.308594 L 394.277344 353.332031 C 393.492188 353.511719 392.695313 353.597656 391.894531 353.597656 C 390.347656 353.597656 389.1875 353.246094 388.421875 352.539063 C 387.652344 351.835938 387.269531 350.800781 387.269531 349.441406 C 387.269531 348.8125 387.472656 347.386719 387.875 345.167969 L 389.351563 337.101563 L 387.078125 337.101563 "/>
<g clip-path="url(#clip2)" clip-rule="nonzero">
<path style=" stroke:none;fill-rule:nonzero;fill:rgb(20.399475%,58.399963%,75.698853%);fill-opacity:1;" d="M 400.683594 333.074219 L 405.109375 333.074219 L 406.226563 343.070313 C 406.503906 345.628906 406.660156 347.429688 406.699219 348.476563 C 407.277344 346.410156 408.070313 344.242188 409.082031 341.976563 L 413.03125 333.074219 L 417.734375 333.074219 L 407.570313 355.109375 C 406.613281 357.175781 405.878906 358.558594 405.359375 359.257813 C 404.84375 359.957031 404.261719 360.472656 403.609375 360.796875 C 402.964844 361.125 402.226563 361.289063 401.40625 361.289063 C 400.476563 361.289063 399.417969 361.089844 398.230469 360.683594 L 398.628906 356.640625 C 399.15625 356.828125 399.675781 356.925781 400.179688 356.925781 C 401.539063 356.925781 402.664063 355.664063 403.550781 353.144531 L 400.683594 333.074219 "/>
</g>
<path style=" stroke:none;fill-rule:nonzero;fill:rgb(20.399475%,58.399963%,75.698853%);fill-opacity:1;" d="M 441.835938 334.246094 C 443.902344 332.960938 444.9375 331.636719 444.9375 330.277344 C 444.9375 329.738281 444.789063 329.304688 444.492188 328.984375 C 444.195313 328.660156 443.808594 328.5 443.328125 328.5 C 442.738281 328.5 442.230469 328.757813 441.808594 329.265625 C 441.386719 329.777344 441.175781 330.464844 441.175781 331.335938 C 441.175781 332.128906 441.394531 333.101563 441.835938 334.246094 Z M 439.703125 340.3125 C 437.648438 341.558594 436.621094 343.203125 436.621094 345.246094 C 436.621094 346.453125 436.9375 347.417969 437.566406 348.136719 C 438.195313 348.855469 438.996094 349.214844 439.96875 349.214844 C 441.214844 349.214844 442.480469 348.691406 443.765625 347.644531 C 442.179688 345.289063 440.824219 342.84375 439.703125 340.3125 Z M 448.789063 341.085938 L 452.003906 343.429688 C 451.324219 345.09375 450.492188 346.503906 449.511719 347.664063 C 450.074219 348.40625 450.824219 349.265625 451.757813 350.234375 L 448.960938 353.785156 C 448.054688 353.167969 447.148438 352.273438 446.242188 351.105469 C 445.445313 351.871094 444.484375 352.484375 443.359375 352.9375 C 442.230469 353.390625 441.042969 353.617188 439.796875 353.617188 C 437.554688 353.617188 435.734375 352.886719 434.335938 351.425781 C 432.9375 349.964844 432.234375 348.074219 432.234375 345.753906 C 432.234375 344.558594 432.441406 343.40625 432.851563 342.308594 C 433.261719 341.203125 433.832031 340.226563 434.5625 339.367188 C 435.292969 338.511719 436.464844 337.554688 438.078125 336.496094 C 437.40625 334.707031 437.074219 333.15625 437.074219 331.847656 C 437.074219 329.792969 437.679688 328.132813 438.886719 326.867188 C 440.097656 325.601563 441.609375 324.96875 443.425781 324.96875 C 444.960938 324.96875 446.226563 325.472656 447.222656 326.480469 C 448.21875 327.488281 448.714844 328.738281 448.714844 330.238281 C 448.714844 331.535156 448.28125 332.867188 447.410156 334.238281 C 446.542969 335.605469 445.222656 336.84375 443.441406 337.949219 C 444.050781 339.1875 444.804688 340.621094 445.710938 342.257813 C 446.203125 343.117188 446.597656 343.753906 446.902344 344.167969 C 447.417969 343.550781 448.050781 342.523438 448.789063 341.085938 "/>
<path style=" stroke:none;fill-rule:nonzero;fill:rgb(20.399475%,58.399963%,75.698853%);fill-opacity:1;" d="M 483.554688 346.429688 C 484.433594 345.347656 485.175781 343.890625 485.773438 342.058594 C 486.371094 340.226563 486.671875 338.453125 486.671875 336.738281 C 486.671875 334.484375 486.183594 332.753906 485.214844 331.542969 C 484.246094 330.335938 483.023438 329.730469 481.550781 329.730469 C 480.363281 329.730469 479.199219 330.179688 478.054688 331.082031 C 476.90625 331.980469 475.921875 333.445313 475.097656 335.476563 C 474.269531 337.503906 473.855469 339.632813 473.855469 341.863281 C 473.855469 344.078125 474.355469 345.800781 475.351563 347.023438 C 476.347656 348.242188 477.589844 348.855469 479.074219 348.855469 C 479.765625 348.855469 480.269531 348.804688 480.585938 348.699219 C 480.699219 348.660156 480.757813 348.578125 480.757813 348.449219 C 480.757813 348.324219 480.527344 348.015625 480.074219 347.527344 C 479.484375 346.898438 478.867188 346.4375 478.222656 346.148438 L 479.925781 342.976563 C 481.320313 343.84375 482.53125 344.996094 483.554688 346.429688 Z M 483.15625 352.578125 C 482.4375 352.917969 481.691406 353.175781 480.914063 353.355469 C 480.140625 353.527344 479.339844 353.617188 478.507813 353.617188 C 475.824219 353.617188 473.675781 352.667969 472.0625 350.765625 C 470.171875 348.535156 469.226563 345.679688 469.226563 342.191406 C 469.226563 339.863281 469.625 337.433594 470.417969 334.902344 C 471.449219 331.652344 472.96875 329.183594 474.972656 327.496094 C 476.976563 325.8125 479.292969 324.96875 481.925781 324.96875 C 484.660156 324.96875 486.914063 326.007813 488.683594 328.085938 C 490.453125 330.164063 491.339844 332.996094 491.339844 336.585938 C 491.339844 339.332031 490.863281 341.941406 489.910156 344.410156 C 488.960938 346.878906 487.734375 348.867188 486.234375 350.378906 C 487.195313 351.535156 488.238281 352.503906 489.375 353.28125 L 487.160156 356.8125 C 485.714844 355.953125 484.378906 354.542969 483.15625 352.578125 "/>
<path style=" stroke:none;fill-rule:nonzero;fill:rgb(20.399475%,58.399963%,75.698853%);fill-opacity:1;" d="M 498.066406 333.074219 L 502.53125 333.074219 L 500.496094 344.917969 C 500.257813 346.339844 500.140625 347.226563 500.140625 347.585938 C 500.140625 348.203125 500.316406 348.714844 500.675781 349.128906 C 501.027344 349.535156 501.464844 349.742188 501.972656 349.742188 C 502.570313 349.742188 503.164063 349.527344 503.75 349.101563 C 504.574219 348.507813 505.226563 347.738281 505.714844 346.785156 C 506.203125 345.835938 506.617188 344.449219 506.964844 342.636719 L 508.742188 333.074219 L 513.210938 333.074219 L 509.484375 353.144531 L 505.304688 353.144531 L 505.804688 350.421875 C 503.992188 352.539063 502.039063 353.597656 499.941406 353.597656 C 498.621094 353.597656 497.570313 353.136719 496.789063 352.210938 C 496.007813 351.28125 495.621094 350.007813 495.621094 348.382813 C 495.621094 347.699219 495.796875 346.328125 496.148438 344.261719 L 498.066406 333.074219 "/>
<path style=" stroke:none;fill-rule:nonzero;fill:rgb(20.399475%,58.399963%,75.698853%);fill-opacity:1;" d="M 527.296875 343.789063 C 527.023438 343.878906 526.675781 343.960938 526.242188 344.035156 C 524.214844 344.335938 522.875 344.742188 522.226563 345.25 C 521.582031 345.757813 521.261719 346.441406 521.261719 347.292969 C 521.261719 347.960938 521.441406 348.5 521.808594 348.914063 C 522.175781 349.328125 522.640625 349.535156 523.207031 349.535156 C 523.792969 349.535156 524.359375 349.363281 524.898438 349.015625 C 525.441406 348.671875 525.871094 348.1875 526.195313 347.566406 C 526.519531 346.945313 526.832031 345.925781 527.132813 344.503906 Z M 523.207031 338.761719 L 518.859375 338.308594 C 519.382813 336.457031 520.28125 335.046875 521.5625 334.074219 C 522.847656 333.105469 524.472656 332.621094 526.441406 332.621094 C 528.445313 332.621094 529.988281 333.117188 531.066406 334.109375 C 532.148438 335.101563 532.6875 336.417969 532.6875 338.0625 C 532.6875 338.640625 532.636719 339.253906 532.535156 339.902344 C 532.433594 340.554688 532.054688 342.335938 531.398438 345.242188 C 530.851563 347.632813 530.578125 349.304688 530.578125 350.257813 C 530.578125 351.144531 530.726563 352.105469 531.023438 353.144531 L 526.589844 353.144531 C 526.40625 352.410156 526.300781 351.648438 526.261719 350.863281 C 525.628906 351.75 524.902344 352.425781 524.085938 352.894531 C 523.261719 353.363281 522.449219 353.597656 521.636719 353.597656 C 520.347656 353.597656 519.269531 353.070313 518.394531 352.011719 C 517.519531 350.953125 517.085938 349.542969 517.085938 347.777344 C 517.085938 345.75 517.601563 344.1875 518.632813 343.089844 C 519.652344 341.992188 521.367188 341.332031 523.773438 341.105469 C 525.890625 340.890625 527.308594 340.632813 528.023438 340.332031 C 528.261719 339.5625 528.378906 338.949219 528.378906 338.496094 C 528.378906 337.894531 528.171875 337.40625 527.757813 337.03125 C 527.339844 336.660156 526.777344 336.476563 526.058594 336.476563 C 524.503906 336.476563 523.550781 337.238281 523.207031 338.761719 "/>
<path style=" stroke:none;fill-rule:nonzero;fill:rgb(20.399475%,58.399963%,75.698853%);fill-opacity:1;" d="M 537.191406 353.144531 L 541.9375 325.441406 L 546.398438 325.441406 L 541.636719 353.144531 L 537.191406 353.144531 "/>
<path style=" stroke:none;fill-rule:nonzero;fill:rgb(20.399475%,58.399963%,75.698853%);fill-opacity:1;" d="M 553.261719 325.441406 L 557.722656 325.441406 L 556.871094 330.351563 L 552.429688 330.351563 Z M 551.957031 333.074219 L 556.398438 333.074219 L 552.960938 353.144531 L 548.519531 353.144531 L 551.957031 333.074219 "/>
<path style=" stroke:none;fill-rule:nonzero;fill:rgb(20.399475%,58.399963%,75.698853%);fill-opacity:1;" d="M 560.785156 337.101563 L 561.507813 333.074219 L 563.808594 333.074219 L 564.367188 329.863281 L 569.550781 326.070313 L 568.277344 333.074219 L 571.085938 333.074219 L 570.402344 337.101563 L 567.550781 337.101563 L 565.992188 345.484375 C 565.726563 346.988281 565.589844 347.863281 565.589844 348.109375 C 565.589844 348.558594 565.710938 348.894531 565.949219 349.113281 C 566.1875 349.332031 566.601563 349.441406 567.1875 349.441406 C 567.371094 349.441406 567.886719 349.398438 568.722656 349.308594 L 567.984375 353.332031 C 567.199219 353.511719 566.402344 353.597656 565.601563 353.597656 C 564.054688 353.597656 562.894531 353.246094 562.128906 352.539063 C 561.359375 351.835938 560.976563 350.800781 560.976563 349.441406 C 560.976563 348.8125 561.179688 347.386719 561.582031 345.167969 L 563.058594 337.101563 L 560.785156 337.101563 "/>
<g clip-path="url(#clip3)" clip-rule="nonzero">
<path style=" stroke:none;fill-rule:nonzero;fill:rgb(20.399475%,58.399963%,75.698853%);fill-opacity:1;" d="M 574.390625 333.074219 L 578.816406 333.074219 L 579.933594 343.070313 C 580.210938 345.628906 580.367188 347.429688 580.40625 348.476563 C 580.984375 346.410156 581.777344 344.242188 582.785156 341.976563 L 586.734375 333.074219 L 591.441406 333.074219 L 581.277344 355.109375 C 580.320313 357.175781 579.582031 358.558594 579.066406 359.257813 C 578.550781 359.957031 577.96875 360.472656 577.316406 360.796875 C 576.667969 361.125 575.933594 361.289063 575.113281 361.289063 C 574.179688 361.289063 573.125 361.089844 571.9375 360.683594 L 572.335938 356.640625 C 572.863281 356.828125 573.382813 356.925781 573.886719 356.925781 C 575.246094 356.925781 576.371094 355.664063 577.257813 353.144531 L 574.390625 333.074219 "/>
</g>
</g>
</svg>
